HIERARCHY
ROOT Hips
{
 OFFSET 0.000000 0.000000 0.000000
 CHANNELS 6 Xposition Yposition Zposition Yrotation Xrotation Zrotation
 JOINT Chest
 {
  OFFSET 0.000000 9.585900 0.002600
  CHANNELS 3 Yrotation Xrotation Zrotation
  JOINT Chest2
  {
   OFFSET 0.000000 9.601200 -0.005300
   CHANNELS 3 Yrotation Xrotation Zrotation
   JOINT Chest3
   {
    OFFSET 0.000000 9.561800 0.000000
    CHANNELS 3 Yrotation Xrotation Zrotation
    JOINT Chest4
    {
     OFFSET 0.000000 9.552100 0.000000
     CHANNELS 3 Yrotation Xrotation Zrotation
     JOINT Neck
     {
      OFFSET 0.000000 14.453000 0.000000
      CHANNELS 3 Yrotation Xrotation Zrotation
      JOINT Head
      {
       OFFSET 0.000000 8.936500 -0.011300
       CHANNELS 3 Yrotation Xrotation Zrotation
       End Site
       {
        OFFSET 0.000000 17.073600 -0.006000
       }
      }
     }
     JOINT RightCollar
     {
      OFFSET -2.921100 9.558500 0.000000
      CHANNELS 3 Yrotation Xrotation Zrotation
      JOINT RightShoulder
      {
       OFFSET -13.519700 0.000000 0.000000
       CHANNELS 3 Yrotation Xrotation Zrotation
       JOINT RightElbow
       {
        OFFSET 0.000000 -29.696600 0.000000
        CHANNELS 3 Yrotation Xrotation Zrotation
        JOINT RightWrist
        {
         OFFSET 0.000000 -24.004700 0.000000
         CHANNELS 3 Yrotation Xrotation Zrotation
         End Site
         {
          OFFSET 0.000000 -17.728500 0.000000
         }
        }
       }
      }
     }
     JOINT LeftCollar
     {
      OFFSET 2.921100 9.558500 0.000000
      CHANNELS 3 Yrotation Xrotation Zrotation
      JOINT LeftShoulder
      {
       OFFSET 13.519700 0.000000 0.000000
       CHANNELS 3 Yrotation Xrotation Zrotation
       JOINT LeftElbow
       {
        OFFSET 0.000000 -29.696600 0.000000
        CHANNELS 3 Yrotation Xrotation Zrotation
        JOINT LeftWrist
        {
         OFFSET 0.000000 -24.004700 0.000000
         CHANNELS 3 Yrotation Xrotation Zrotation
         End Site
         {
          OFFSET 0.000000 -17.728500 0.000000
         }
        }
       }
      }
     }
    }
   }
  }
 }
 JOINT RightHip
 {
  OFFSET -7.771700 -0.012900 -0.001300
  CHANNELS 3 Yrotation Xrotation Zrotation
  JOINT RightKnee
  {
   OFFSET 0.000000 -40.869800 0.001200
   CHANNELS 3 Yrotation Xrotation Zrotation
   JOINT RightAnkle
   {
    OFFSET 0.000000 -39.717900 0.002100
    CHANNELS 3 Yrotation Xrotation Zrotation
    JOINT RightToe
    {
     OFFSET 0.000000 -4.965400 11.033500
     CHANNELS 3 Yrotation Xrotation Zrotation
     End Site
     {
      OFFSET 0.000000 -1.423100 5.872300
     }
    }
   }
  }
 }
 JOINT LeftHip
 {
  OFFSET 7.771700 -0.012900 -0.001300
  CHANNELS 3 Yrotation Xrotation Zrotation
  JOINT LeftKnee
  {
   OFFSET 0.000000 -40.869800 0.001200
   CHANNELS 3 Yrotation Xrotation Zrotation
   JOINT LeftAnkle
   {
    OFFSET 0.000000 -39.717900 0.002100
    CHANNELS 3 Yrotation Xrotation Zrotation
    JOINT LeftToe
    {
     OFFSET 0.000000 -4.965400 11.033500
     CHANNELS 3 Yrotation Xrotation Zrotation
     End Site
     {
      OFFSET 0.000000 -1.423100 5.872300
     }
    }
   }
  }
 }
}
MOTION
Frames: 9
Frame Time: 0.008333
0.000000 85.388000 0.000000 0.000000 -5.767877 0.000000 0.000000 11.653817 0.000000 0.000000 -5.885947 0.000000 0.000000 -0.000000 0.000000 0.000000 -0.000000 0.000000 0.000000 12.528835 0.000000 0.000000 0.711642 0.000000 0.000000 -0.000000 0.000000 0.000000 0.000000 -90.000000 0.000000 -2.309062 0.000000 0.000000 2.309062 0.000000 0.000000 -0.000000 0.000000 0.000000 -0.000000 90.000000 0.000000 -2.309062 0.000000 0.000000 2.309062 0.000000 0.000000 8.520406 0.000000 0.000000 1.905762 0.000000 -0.000000 -4.658285 0.000000 0.000000 -0.000000 0.000000 0.000000 8.520406 0.000000 0.000000 1.905762 0.000000 -0.000000 -4.658285 0.000000 0.000000 -0.000000 0.000000
-118.344091 57.980626 101.529528 176.202634 -32.531360 -1.327449 1.835947 21.334782 3.215877 0.167171 2.868333 0.377178 0.283091 4.677917 0.611143 1.425487 18.157967 2.591926 -2.913128 13.138553 -2.822541 -4.377692 -11.425926 -4.169154 3.443388 -3.810781 -0.446165 17.554756 -20.634394 -21.788167 125.478711 -74.345779 -74.974445 12.319495 -18.358290 -42.283568 -7.757809 -4.248411 -4.691142 -1.041152 -10.078471 -1.460180 37.233785 -44.902130 -71.747081 7.036500 -12.334971 27.525805 5.989632 -42.622025 -3.738475 -11.592105 67.295539 -12.199711 6.951769 23.295998 6.652632 -0.072104 -16.055136 0.707795 -5.752781 -40.191863 2.673408 24.185072 64.915818 21.814531 -16.614951 5.903218 -2.341960 -0.095170 -0.043548 -0.039375
-118.345079 57.980837 101.528448 176.203219 -32.532995 -1.334723 1.840208 21.338694 3.222160 0.166286 2.868426 0.375492 0.282748 4.675818 0.613871 1.423867 18.159747 2.588165 -2.813360 13.224130 -2.748510 -4.222066 -11.266724 -4.076476 3.440728 -3.792402 -0.448990 17.555205 -20.637494 -21.804626 125.562774 -74.361935 -75.059241 12.324723 -18.356614 -42.282716 -7.753233 -4.245635 -4.689719 -1.040229 -10.080630 -1.458440 37.223155 -44.905892 -71.749071 7.039414 -12.338400 27.530417 5.965935 -42.622051 -3.718455 -11.597026 67.294237 -12.215844 6.961021 23.304630 6.657924 -0.071557 -16.063909 0.703600 -5.748403 -40.186658 2.686112 24.131216 64.928272 21.758280 -16.604196 5.886119 -2.333141 -0.092836 -0.032001 -0.037413
-118.347366 57.980936 101.527432 176.205934 -32.531486 -1.339472 1.844047 21.338214 3.227343 0.161020 2.869590 0.373467 0.282479 4.675710 0.614369 1.427110 18.162374 2.591555 -2.743128 13.280618 -2.699781 -4.055273 -11.107677 -3.983827 3.438261 -3.787868 -0.451679 17.555651 -20.633685 -21.814091 125.610608 -74.367428 -75.110898 12.328103 -18.355377 -42.282193 -7.751991 -4.242921 -4.693548 -1.049616 -10.083295 -1.461676 37.223920 -44.912244 -71.745962 7.037999 -12.337303 27.532588 5.953787 -42.621187 -3.713891 -11.587780 67.292265 -12.209421 6.965542 23.304375 6.660820 -0.072832 -16.064441 0.700773 -5.746840 -40.186915 2.690692 24.109345 64.934325 21.735597 -16.608540 5.870501 -2.329440 -0.085690 -0.020518 -0.036028
-118.351867 57.981338 101.525696 176.222912 -32.531430 -1.342305 1.830413 21.338596 3.222102 0.164579 2.872173 0.373956 0.286104 4.677848 0.615606 1.421823 18.162796 2.592187 -2.723872 13.295048 -2.683504 -3.856974 -10.933068 -3.884615 3.433417 -3.789744 -0.452660 17.554433 -20.625718 -21.819159 125.645831 -74.370944 -75.150284 12.321512 -18.352339 -42.276968 -7.757419 -4.234406 -4.699048 -1.061786 -10.086050 -1.456163 37.227729 -44.911807 -71.752755 7.034567 -12.343225 27.533073 5.945398 -42.615096 -3.728907 -11.648497 67.287909 -12.261554 6.993627 23.293649 6.662034 -0.079203 -16.059206 0.699740 -5.749836 -40.187707 2.681994 24.061411 64.942716 21.681038 -16.591191 5.868842 -2.314320 -0.083612 -0.020499 -0.038284
-118.357664 57.983045 101.521840 176.237617 -32.543588 -1.338761 1.816618 21.350336 3.211575 0.167177 2.872253 0.374681 0.282016 4.681776 0.614919 1.421694 18.162045 2.592311 -2.634876 13.363505 -2.625090 -3.736619 -10.834537 -3.824539 3.433475 -3.771372 -0.456220 17.553863 -20.642421 -21.823576 125.646919 -74.386144 -75.159542 12.313813 -18.359936 -42.247078 -7.759242 -4.229033 -4.701035 -1.065537 -10.085294 -1.453176 37.235590 -44.915122 -71.757607 7.035696 -12.341735 27.529597 5.955475 -42.594673 -3.756874 -11.729583 67.290159 -12.318452 6.996969 23.264158 6.644723 -0.078827 -16.040377 0.704354 -5.748684 -40.175884 2.668163 23.957103 64.968612 21.561530 -16.536531 5.859090 -2.274280 -0.100476 -0.018393 -0.051784
-118.362317 57.984467 101.518554 176.246893 -32.550626 -1.342038 1.808375 21.358752 3.209486 0.167075 2.873278 0.374644 0.282838 4.685056 0.615716 1.420389 18.159781 2.591497 -2.504685 13.463433 -2.543746 -3.675667 -10.793034 -3.793147 3.440427 -3.756473 -0.456747 17.540876 -20.644034 -21.818601 125.689214 -74.404706 -75.208713 12.341422 -18.352307 -42.234463 -7.756641 -4.223627 -4.702883 -1.070711 -10.086291 -1.450229 37.240845 -44.917238 -71.760577 7.050014 -12.345361 27.541905 5.971891 -42.578221 -3.778965 -11.752777 67.293250 -12.313912 6.980513 23.227943 6.620062 -0.070597 -16.012701 0.713702 -5.752165 -40.167984 2.664780 23.898418 64.983747 21.498236 -16.521773 5.842165 -2.253332 -0.099197 -0.013605 -0.061139
-118.366953 57.985584 101.515750 176.249646 -32.553194 -1.343980 1.807177 21.360980 3.210350 0.166824 2.875116 0.374828 0.283493 4.689360 0.616198 1.420025 18.177135 2.592742 -2.426241 13.503697 -2.499414 -3.593208 -10.737520 -3.760332 3.443272 -3.753921 -0.450770 17.535748 -20.652935 -21.821211 125.722920 -74.403532 -75.242730 12.339002 -18.344989 -42.226544 -7.751675 -4.237649 -4.704495 -1.078005 -10.090292 -1.448419 37.243321 -44.906867 -71.753672 7.045655 -12.352632 27.547892 5.998968 -42.566515 -3.802839 -11.772305 67.294205 -12.302979 6.966437 23.194965 6.601374 -0.062448 -15.985948 0.719830 -5.753350 -40.163948 2.665713 23.836667 64.999768 21.431555 -16.506838 5.824473 -2.234694 -0.125849 -0.022535 -0.065140
-118.372111 57.986784 101.512770 176.249607 -32.556491 -1.342326 1.812369 21.373762 3.215615 0.164481 2.872085 0.371184 0.281375 4.685004 0.615353 1.423257 18.184595 2.595618 -2.401368 13.516578 -2.486346 -3.490356 -10.666330 -3.732771 3.437627 -3.753140 -0.447755 17.533832 -20.648788 -21.812344 125.740924 -74.401605 -75.261105 12.335599 -18.336703 -42.221531 -7.748709 -4.237549 -4.705856 -1.081688 -10.095832 -1.449858 37.234428 -44.903319 -71.743901 7.049934 -12.359964 27.557805 6.031747 -42.554980 -3.827529 -11.790243 67.293938 -12.294496 6.952316 23.170607 6.590301 -0.060726 -15.965870 0.724984 -5.756422 -40.155093 2.665252 23.780233 65.008737 21.365942 -16.485366 5.809104 -2.220293 -0.138131 -0.021792 -0.066325
